<svg xmlns="http://www.w3.org/2000/svg" viewBox="0 0 300 300" fill="none">
  <!-- Background Circle -->
  <circle cx="150" cy="150" r="140" fill="#ECFDF5" stroke="#10B981" stroke-width="4"/>
  
  <!-- Success Circle -->
  <circle cx="150" cy="150" r="90" fill="#10B981" stroke="#FFFFFF" stroke-width="4"/>
  
  <!-- Checkmark -->
  <path d="M120 150 L140 170 L180 130" stroke="#FFFFFF" stroke-width="8" stroke-linecap="round" stroke-linejoin="round" fill="none"/>
  
  <!-- Digital Elements -->
  <!-- Top Binary Code -->
  <text x="150" y="40" text-anchor="middle" font-family="Arial, sans-serif" font-size="12" font-weight="bold" fill="#10B981">100%</text>
  <text x="150" y="55" text-anchor="middle" font-family="Arial, sans-serif" font-size="8" fill="#059669">DIGITAL</text>
  
  <!-- Side Digital Indicators -->
  <rect x="30" y="70" width="8" height="8" fill="#10B981" opacity="0.6"/>
  <rect x="30" y="85" width="8" height="8" fill="#10B981" opacity="0.4"/>
  <rect x="30" y="100" width="8" height="8" fill="#10B981" opacity="0.8"/>
  
  <rect x="262" y="70" width="8" height="8" fill="#10B981" opacity="0.8"/>
  <rect x="262" y="85" width="8" height="8" fill="#10B981" opacity="0.4"/>
  <rect x="262" y="100" width="8" height="8" fill="#10B981" opacity="0.6"/>
  
  <!-- Bottom Binary Pattern -->
  <rect x="70" y="260" width="6" height="6" fill="#10B981" opacity="0.5"/>
  <rect x="80" y="260" width="6" height="6" fill="#10B981" opacity="0.3"/>
  <rect x="90" y="260" width="6" height="6" fill="#10B981" opacity="0.7"/>
  <rect x="100" y="260" width="6" height="6" fill="#10B981" opacity="0.5"/>
  <rect x="110" y="260" width="6" height="6" fill="#10B981" opacity="0.8"/>
  
  <rect x="184" y="260" width="6" height="6" fill="#10B981" opacity="0.8"/>
  <rect x="194" y="260" width="6" height="6" fill="#10B981" opacity="0.5"/>
  <rect x="204" y="260" width="6" height="6" fill="#10B981" opacity="0.7"/>
  <rect x="214" y="260" width="6" height="6" fill="#10B981" opacity="0.3"/>
  <rect x="224" y="260" width="6" height="6" fill="#10B981" opacity="0.5"/>
  
  <!-- Network Nodes -->
  <circle cx="80" cy="120" r="4" fill="#10B981" opacity="0.6"/>
  <circle cx="220" cy="120" r="4" fill="#10B981" opacity="0.6"/>
  <circle cx="80" cy="180" r="4" fill="#10B981" opacity="0.6"/>
  <circle cx="220" cy="180" r="4" fill="#10B981" opacity="0.6"/>
  
  <!-- Connection Lines -->
  <line x1="84" y1="120" x2="106" y2="138" stroke="#10B981" stroke-width="2" opacity="0.4"/>
  <line x1="216" y1="120" x2="194" y2="138" stroke="#10B981" stroke-width="2" opacity="0.4"/>
  <line x1="84" y1="180" x2="106" y2="162" stroke="#10B981" stroke-width="2" opacity="0.4"/>
  <line x1="216" y1="180" x2="194" y2="162" stroke="#10B981" stroke-width="2" opacity="0.4"/>
  
  <!-- Digital Sparkles -->
  <polygon points="40,150 45,160 50,150 45,140" fill="#10B981" opacity="0.7"/>
  <polygon points="250,150 255,160 260,150 255,140" fill="#10B981" opacity="0.7"/>
  
  <!-- Progress Indicator -->
  <path d="M80 240 L220 240" stroke="#10B981" stroke-width="6" stroke-linecap="round" opacity="0.3"/>
  <path d="M80 240 L220 240" stroke="#10B981" stroke-width="6" stroke-linecap="round"/>
  
  <!-- Text at bottom -->
  <text x="150" y="285" text-anchor="middle" font-family="Arial, sans-serif" font-size="10" font-weight="bold" fill="#059669">CONFIRMADO</text>
</svg> 